HIERARCHY
ROOT Hips
{
	OFFSET 0.000000 0.000000 0.000000
	CHANNELS 6 Xposition Yposition Zposition Zrotation Yrotation Xrotation 
	JOINT LowerBack
	{
		OFFSET 0.000000 0.000000 0.000000
		CHANNELS 3 Zrotation Yrotation Xrotation
		JOINT Spine
		{
			OFFSET 0.028270 2.035590 -0.193380
			CHANNELS 3 Zrotation Yrotation Xrotation
			JOINT Spine1
			{
				OFFSET 0.056720 2.048850 -0.042750
				CHANNELS 3 Zrotation Yrotation Xrotation
				JOINT Neck
				{
					OFFSET 0.000000 0.000000 0.000000
					CHANNELS 3 Zrotation Yrotation Xrotation
					JOINT Neck1
					{
						OFFSET -0.054170 1.746240 0.172020
						CHANNELS 3 Zrotation Yrotation Xrotation
						JOINT Head
						{
							OFFSET 0.104070 1.761360 -0.123970
							CHANNELS 3 Zrotation Yrotation Xrotation
							End Site
							{
								OFFSET 0.000000 0.000000 0.000000
							}
						}
					}
				}
				JOINT LeftShoulder
				{
					OFFSET 0.000000 0.000000 0.000000
					CHANNELS 3 Zrotation Yrotation Xrotation
					JOINT LeftArm
					{
						OFFSET 3.362410 1.200890 -0.311210
						CHANNELS 3 Zrotation Yrotation Xrotation
						JOINT LeftForeArm
						{
							OFFSET 4.983000 -0.000000 -0.000000
							CHANNELS 3 Zrotation Yrotation Xrotation
							JOINT LeftHand
							{
								OFFSET 3.483560 -0.000000 -0.000000
								CHANNELS 3 Zrotation Yrotation Xrotation
								JOINT LeftFingerBase
								{
									OFFSET 0.000000 0.000000 0.000000
									CHANNELS 3 Zrotation Yrotation Xrotation
									JOINT LeftHandIndex1
									{
										OFFSET 0.715260 -0.000000 -0.000000
										CHANNELS 3 Zrotation Yrotation Xrotation
										End Site
										{
											OFFSET 0.000000 0.000000 0.000000
										}
									}
								}
								JOINT LThumb
								{
									OFFSET 0.000000 0.000000 0.000000
									CHANNELS 3 Zrotation Yrotation Xrotation
									End Site
									{
										OFFSET 0.000000 0.000000 0.000000
									}
								}
							}
						}
					}
				}
				JOINT RightShoulder
				{
					OFFSET 0.000000 0.000000 0.000000
					CHANNELS 3 Zrotation Yrotation Xrotation
					JOINT RightArm
					{
						OFFSET -3.136600 1.374050 -0.404650
						CHANNELS 3 Zrotation Yrotation Xrotation
						JOINT RightForeArm
						{
							OFFSET -5.241900 -0.000000 -0.000000
							CHANNELS 3 Zrotation Yrotation Xrotation
							JOINT RightHand
							{
								OFFSET -3.444170 -0.000000 -0.000000
								CHANNELS 3 Zrotation Yrotation Xrotation
								JOINT RightFingerBase
								{
									OFFSET 0.000000 0.000000 0.000000
									CHANNELS 3 Zrotation Yrotation Xrotation
									JOINT RightHandIndex1
									{
										OFFSET -0.622530 -0.000000 -0.000000
										CHANNELS 3 Zrotation Yrotation Xrotation
										End Site
										{
											OFFSET 0.000000 0.000000 0.000000
										}
									}
								}
								JOINT RThumb
								{
									OFFSET 0.000000 0.000000 0.000000
									CHANNELS 3 Zrotation Yrotation Xrotation
									End Site
									{
										OFFSET 0.000000 0.000000 0.000000
									}
								}
							}
						}
					}
				}
			}
		}
	}
}
}
MOTION
Frames: 18
Frame Time: 0.008333
2.233107 17.470844 0.388441 179.362667 -51.706983 -173.506409 1.735303 -6.164348 -8.399830 1.109918 -6.300124 -4.003166 -1.428515 -6.443336 1.553368 15.387423 -22.454210 -8.156574 0.256810 0.029921 -0.022412 0.000000 0.000000 0.000000 21.036210 -5.001101 4.170927 0.570488 -16.792165 -31.091521 -1.961292 -7.140304 -0.013927 2.696671 -0.393503 -0.018476 -0.223737 0.342470 -0.000000 0.000000 0.000000 0.000000 0.000000 0.000000 0.000000 8.452049 -22.443135 -2.657435 32.658679 21.778700 4.955966 -179.632714 70.040743 179.914514 -10.803365 9.669441 -0.989953 0.162770 -0.614063 0.000000 0.000000 0.000000 0.000000 0.000000 0.000000 0.000000 
2.233262 17.466725 0.396214 179.428125 -51.211563 -173.290344 1.961940 -6.083737 -8.437674 1.159565 -6.247222 -3.988660 -1.400183 -6.395096 1.688857 15.183950 -22.556526 -8.255787 0.293652 0.034898 -0.049040 0.000000 0.000000 0.000000 21.084697 -4.282761 4.159933 0.161195 -16.757367 -30.413895 -1.751781 -9.605303 -0.017330 2.777419 0.317381 -0.000473 -0.216578 0.346382 -0.000000 0.000000 0.000000 0.000000 0.000000 0.000000 0.000000 8.095130 -22.408035 -2.674664 32.661134 21.083088 4.729909 -179.629705 69.734591 179.915594 -10.637318 9.587879 -0.966678 0.159480 -0.612898 0.000000 0.000000 0.000000 0.000000 0.000000 0.000000 0.000000 
2.235179 17.461460 0.402953 179.503359 -50.685136 -173.081249 2.187618 -5.963966 -8.474289 1.194998 -6.158646 -3.975188 -1.416700 -6.310476 1.816060 15.012684 -22.669288 -8.332869 0.308611 0.037697 -0.069133 0.000000 0.000000 0.000000 21.110337 -3.666387 4.112003 -0.390408 -16.300306 -28.968206 -1.499579 -13.105789 -0.021282 2.972705 0.926909 0.016150 -0.209507 0.358550 -0.000000 0.000000 0.000000 0.000000 0.000000 0.000000 0.000000 7.815385 -22.330903 -2.666622 32.639830 20.288968 4.454704 -179.641131 69.363771 179.916943 -10.470350 9.518896 -0.944987 0.157925 -0.612293 0.000000 0.000000 0.000000 0.000000 0.000000 0.000000 0.000000 
2.238989 17.455424 0.409049 179.583343 -50.156783 -172.879353 2.400883 -5.810999 -8.501946 1.212757 -6.039131 -3.965356 -1.483703 -6.193660 1.916388 14.880154 -22.790221 -8.374747 0.299114 0.037800 -0.078891 0.000000 0.000000 0.000000 21.098200 -3.192655 4.007317 -0.973730 -15.478483 -27.237223 -1.210540 -17.370199 -0.026065 3.351297 1.298940 0.028886 -0.203321 0.380338 -0.000000 0.000000 0.000000 0.000000 0.000000 0.000000 0.000000 7.624762 -22.221809 -2.628551 32.600090 19.391638 4.134888 -179.669960 68.944491 179.918627 -10.303796 9.467193 -0.925380 0.158269 -0.612042 0.000000 0.000000 0.000000 0.000000 0.000000 0.000000 0.000000 
2.244681 17.449008 0.414945 179.667364 -49.656376 -172.689342 2.599873 -5.633996 -8.512909 1.214003 -5.896627 -3.959186 -1.596538 -6.052300 1.983521 14.783738 -22.917743 -8.378524 0.266953 0.035271 -0.077623 0.000000 0.000000 0.000000 21.042286 -2.824699 3.831832 -1.533937 -14.461967 -25.650990 -0.898217 -22.086142 -0.032031 3.944886 1.327092 0.033526 -0.198079 0.411376 -0.000000 0.000000 0.000000 0.000000 0.000000 0.000000 0.000000 7.517578 -22.095291 -2.563458 32.558438 18.408501 3.778237 -179.715690 68.506634 179.920632 -10.138636 9.434458 -0.907758 0.160236 -0.611857 0.000000 0.000000 0.000000 0.000000 0.000000 0.000000 0.000000 
2.252218 17.442486 0.421214 179.754452 -49.210778 -172.517699 2.786754 -5.443859 -8.499042 1.202127 -5.740615 -3.955177 -1.745153 -5.895790 2.018545 14.714004 -23.054304 -8.346658 0.216249 0.030498 -0.066275 0.000000 0.000000 0.000000 20.947729 -2.523831 3.583421 -2.089756 -13.378155 -24.427213 -0.583769 -27.039373 -0.039469 4.726479 1.021531 0.025060 -0.193126 0.448447 -0.000000 0.000000 0.000000 0.000000 0.000000 0.000000 0.000000 7.475240 -21.971152 -2.477918 32.540791 17.375745 3.396913 -179.775805 68.080871 179.922911 -9.976194 9.418123 -0.892125 0.163394 -0.611495 0.000000 0.000000 0.000000 0.000000 0.000000 0.000000 0.000000 
2.261132 17.436092 0.428187 179.842251 -48.838130 -172.363317 2.966709 -5.251866 -8.458569 1.182337 -5.581349 -3.951362 -1.915722 -5.734620 2.030112 14.655274 -23.200005 -8.286461 0.152902 0.024129 -0.047200 0.000000 0.000000 0.000000 20.826362 -2.231409 3.267607 -2.700476 -12.341546 -23.635673 -0.287442 -32.077214 -0.048521 5.648748 0.462667 -0.000818 -0.187845 0.487370 -0.000000 0.000000 0.000000 0.000000 0.000000 0.000000 0.000000 7.468481 -21.865197 -2.382026 32.575456 16.338181 3.004978 -179.845645 67.700095 179.925360 -9.817858 9.415750 -0.878181 0.167149 -0.610783 0.000000 0.000000 0.000000 0.000000 0.000000 0.000000 0.000000 
2.271262 17.430008 0.436102 179.923344 -48.550624 -172.224147 3.145765 -5.069024 -8.391956 1.159703 -5.429138 -3.946678 -2.095993 -5.579361 2.025016 14.589234 -23.350034 -8.202764 0.081681 0.016675 -0.021983 0.000000 0.000000 0.000000 20.685295 -1.932348 2.898178 -3.433193 -11.357834 -23.240867 -0.027435 -37.151894 -0.058936 6.641969 -0.212627 -0.043409 -0.181650 0.523912 -0.000000 0.000000 0.000000 0.000000 0.000000 0.000000 0.000000 7.464942 -21.784272 -2.284530 32.690230 15.335591 2.617931 -179.920584 67.386930 179.927875 -9.665199 9.423878 -0.865535 0.171030 -0.609675 0.000000 0.000000 0.000000 0.000000 0.000000 0.000000 0.000000 
2.282260 17.424367 0.445078 179.994181 -48.355132 -172.097090 3.326988 -4.904314 -8.300770 1.138073 -5.292507 -3.940157 -2.276301 -5.438879 2.009676 14.502390 -23.501696 -8.101158 0.006050 0.008551 0.007704 0.000000 0.000000 0.000000 20.533331 -1.629822 2.491746 -4.344807 -10.391986 -23.180522 0.182641 -42.254075 -0.070072 7.631629 -0.875717 -0.097112 -0.174188 0.555180 -0.000000 0.000000 0.000000 0.000000 0.000000 0.000000 0.000000 7.441736 -21.732714 -2.192118 32.900783 14.403314 2.247076 -179.996508 67.156660 179.930351 -9.522755 9.434389 -0.853988 0.174791 -0.608082 0.000000 0.000000 0.000000 0.000000 0.000000 0.000000 0.000000 
2.293703 17.419325 0.455039 -179.947416 -48.250139 -171.976152 3.513684 -4.764395 -8.193387 1.120583 -5.178269 -3.933023 -2.450081 -5.320275 1.986792 14.380760 -23.639021 -7.982824 -0.072552 -0.000088 0.041551 0.000000 0.000000 0.000000 20.369157 -1.356307 2.069655 -5.462336 -9.358270 -23.374344 0.332357 -47.402579 -0.081025 8.546993 -1.411574 -0.151221 -0.165582 0.579365 0.000000 0.000000 0.000000 0.000000 0.000000 0.000000 0.000000 7.376107 -21.695567 -2.109843 33.217947 13.549269 1.902198 179.930145 67.011071 179.932691 -9.394488 9.446955 -0.843741 0.178263 -0.606135 0.000000 0.000000 0.000000 0.000000 0.000000 0.000000 0.000000 
2.305598 17.414845 0.465925 -179.904725 -48.231462 -171.858238 3.700826 -4.652695 -8.070228 1.108129 -5.089402 -3.923665 -2.611484 -5.226951 1.962549 14.224351 -23.763329 -7.856050 -0.152998 -0.008982 0.077287 0.000000 0.000000 0.000000 20.207934 -1.114051 1.647507 -6.805614 -8.237734 -23.769578 0.418764 -52.569346 -0.090929 9.334656 -1.767255 -0.195733 -0.156145 0.596483 0.000000 0.000000 0.000000 0.000000 0.000000 0.000000 0.000000 7.269717 -21.673710 -2.041011 33.630997 12.796162 1.583557 179.861979 66.947749 179.934801 -9.288416 9.455853 -0.835194 0.181520 -0.603858 0.000000 0.000000 0.000000 0.000000 0.000000 0.000000 0.000000 
2.317767 17.410942 0.477513 -179.878277 -48.288983 -171.738703 3.884685 -4.569756 -7.937143 1.101098 -5.026479 -3.912347 -2.757223 -5.159772 1.940079 14.032761 -23.866211 -7.725471 -0.235097 -0.018028 0.113710 0.000000 0.000000 0.000000 20.053069 -0.917764 1.242484 -8.363429 -6.999349 -24.305574 0.443021 -57.726905 -0.098996 9.950682 -1.913594 -0.222241 -0.146314 0.606978 -0.000000 0.000000 0.000000 0.000000 0.000000 0.000000 0.000000 7.122014 -21.654272 -1.987621 34.128353 12.140487 1.290826 179.800890 66.953888 179.936602 -9.211432 9.461323 -0.828849 0.184666 -0.601413 0.000000 0.000000 0.000000 0.000000 0.000000 0.000000 0.000000 
2.330210 17.407494 0.489624 -179.868654 -48.410282 -171.613324 4.058890 -4.513085 -7.797488 1.098740 -4.986897 -3.898435 -2.885142 -5.116396 1.923641 13.812079 -23.947158 -7.598363 -0.318338 -0.027057 0.148861 0.000000 0.000000 0.000000 19.908960 -0.758663 0.866527 -10.108446 -5.663985 -24.930914 0.412615 -62.814686 -0.104762 10.374686 -1.860555 -0.227044 -0.136527 0.611891 -0.000000 0.000000 0.000000 0.000000 0.000000 0.000000 0.000000 6.941819 -21.631764 -1.950576 34.691373 11.579250 1.020399 179.747909 67.014148 179.938036 -9.170065 9.462555 -0.825302 0.187863 -0.598914 0.000000 0.000000 0.000000 0.000000 0.000000 0.000000 0.000000 
2.342874 17.404393 0.501974 -179.872346 -48.579903 -171.481183 4.220739 -4.478466 -7.656053 1.100339 -4.966739 -3.882472 -2.995467 -5.093005 1.914371 13.567192 -23.998806 -7.477974 -0.402405 -0.035994 0.181904 0.000000 0.000000 0.000000 19.768884 -0.638695 0.531568 -11.992363 -4.240009 -25.595960 0.338287 -67.777980 -0.107863 10.588346 -1.629836 -0.209840 -0.126919 0.612033 -0.000000 0.000000 0.000000 0.000000 0.000000 0.000000 0.000000 6.733030 -21.591865 -1.929763 35.305517 11.092712 0.769460 179.703353 67.105282 179.939071 -9.167213 9.464096 -0.825156 0.191211 -0.596620 0.000000 0.000000 0.000000 0.000000 0.000000 0.000000 0.000000 
2.355879 17.401477 0.514375 -179.889284 -48.783219 -171.340609 4.366139 -4.460314 -7.514427 1.104595 -4.960512 -3.864008 -3.088799 -5.084185 1.914551 13.306381 -24.021817 -7.369565 -0.485870 -0.044640 0.211383 0.000000 0.000000 0.000000 19.625884 -0.531840 0.242154 -13.962227 -2.786768 -26.258065 0.234511 -72.541594 -0.108366 10.602223 -1.268979 -0.175731 -0.117583 0.608484 -0.000000 0.000000 0.000000 0.000000 0.000000 0.000000 0.000000 6.502994 -21.529945 -1.924613 35.955923 10.666778 0.534304 179.667025 67.209115 179.939702 -9.203412 9.468199 -0.828808 0.194768 -0.594682 0.000000 0.000000 0.000000 0.000000 0.000000 0.000000 0.000000 
2.369345 17.398519 0.526604 -179.919430 -49.006953 -171.188588 4.490206 -4.451608 -7.372274 1.109598 -4.961153 -3.841973 -3.166796 -5.082878 1.927013 13.041621 -24.026056 -7.279689 -0.566984 -0.052750 0.235455 0.000000 0.000000 0.000000 19.477017 -0.398423 -0.004018 -15.970399 -1.389887 -26.874783 0.116231 -77.029205 -0.106666 10.447997 -0.836993 -0.132517 -0.108552 0.602360 -0.000000 0.000000 0.000000 0.000000 0.000000 0.000000 0.000000 6.265059 -21.453007 -1.933645 36.624076 10.296127 0.310804 179.637997 67.308455 179.939949 -9.277668 9.474002 -0.836060 0.198633 -0.593160 0.000000 0.000000 0.000000 0.000000 0.000000 0.000000 0.000000 
2.383234 17.395450 0.538501 -179.956271 -49.238735 -171.028813 4.596246 -4.447145 -7.231859 1.114890 -4.964078 -3.817512 -3.232789 -5.084352 1.949018 12.776128 -24.003611 -7.206080 -0.644245 -0.060255 0.254747 0.000000 0.000000 0.000000 19.306376 -0.235709 -0.205612 -17.961063 -0.066817 -27.411856 -0.004498 -81.206409 -0.103036 10.146837 -0.377476 -0.086601 -0.099685 0.594275 -0.000000 0.000000 0.000000 0.000000 0.000000 0.000000 0.000000 6.014283 -21.348038 -1.955004 37.308315 9.952197 0.099397 179.615353 67.385670 179.939855 -9.381241 9.488468 -0.846710 0.202646 -0.592292 0.000000 0.000000 0.000000 0.000000 0.000000 0.000000 0.000000 
2.397778 17.392104 0.549944 179.997903 -49.471258 -170.858720 4.680029 -4.441006 -7.091078 1.118486 -4.963160 -3.789847 -3.288977 -5.082385 1.980904 12.520690 -23.967497 -7.152056 -0.715906 -0.066965 0.268305 0.000000 0.000000 0.000000 19.118903 -0.017195 -0.371391 -19.908495 1.121924 -27.839497 -0.117540 -85.031478 -0.098173 9.748678 0.050173 -0.045589 -0.091063 0.585346 -0.000000 0.000000 0.000000 0.000000 0.000000 0.000000 0.000000 5.761970 -21.227586 -1.985752 37.994872 9.633184 -0.101609 179.597584 67.433394 179.939491 -9.508021 9.507865 -0.859860 0.206824 -0.592007 0.000000 0.000000 0.000000 0.000000 0.000000 0.000000 0.000000 
